<?xml version="1.0" standalone="no"?>
<!DOCTYPE svg PUBLIC "-//W3C//DTD SVG 20010904//EN"
 "http://www.w3.org/TR/2001/REC-SVG-20010904/DTD/svg10.dtd">
<svg version="1.0" xmlns="http://www.w3.org/2000/svg"
 width="223.000000pt" height="348.000000pt" viewBox="0 0 223.000000 348.000000"
 preserveAspectRatio="xMidYMid meet">

<g transform="translate(0.000000,348.000000) scale(0.100000,-0.100000)"
fill="#000000" stroke="none">
<path d="M265 3372 c-10 -49 13 -181 44 -247 15 -33 46 -80 69 -105 40 -44 41
-45 57 -25 78 96 115 197 115 316 l0 79 -67 0 c-38 0 -100 3 -139 6 l-72 6 -7
-30z m178 -1 l97 -1 0 -62 c0 -102 -48 -236 -101 -284 -27 -24 -44 -12 -89 58
-42 67 -70 163 -70 241 0 52 3 57 38 52 15 -2 71 -4 125 -4z"/>
<path d="M311 3303 c2 -24 2 -25 6 -5 3 17 11 22 34 22 17 0 28 -4 25 -9 -3
-5 -14 -7 -24 -4 -13 3 -18 -2 -18 -17 0 -13 5 -19 14 -15 8 3 10 0 6 -7 -24
-38 -19 -148 6 -133 4 3 7 -3 6 -13 0 -9 5 -16 12 -14 8 1 10 -2 7 -8 -7 -11
21 -50 34 -50 4 0 15 14 25 30 9 17 21 28 25 26 3 -3 7 3 7 12 0 9 4 28 8 40
l8 24 -21 -21 c-12 -12 -21 -26 -21 -32 0 -23 -26 0 -47 42 -25 51 -29 73 -8
45 15 -19 15 -19 15 2 0 12 4 22 10 22 17 0 6 53 -12 58 -33 8 -7 22 42 22
l49 0 4 -37 4 -38 1 43 2 42 -100 0 -100 0 1 -27z m63 -101 c3 -39 1 -52 -9
-52 -16 0 -25 33 -14 51 5 8 9 25 9 38 0 41 9 18 14 -37z"/>
<path d="M491 3204 c0 -11 3 -14 6 -6 3 7 2 16 -1 19 -3 4 -6 -2 -5 -13z"/>
<path d="M455 3191 c-3 -5 -1 -12 4 -15 5 -3 11 1 15 9 6 16 -9 21 -19 6z"/>
<path d="M1536 2468 c3 -5 10 -6 15 -3 13 9 11 12 -6 12 -8 0 -12 -4 -9 -9z"/>
<path d="M191 2374 c0 -11 3 -14 6 -6 3 7 2 16 -1 19 -3 4 -6 -2 -5 -13z"/>
<path d="M1381 2264 c0 -11 3 -14 6 -6 3 7 2 16 -1 19 -3 4 -6 -2 -5 -13z"/>
<path d="M1702 2260 c0 -14 2 -19 5 -12 2 6 2 18 0 25 -3 6 -5 1 -5 -13z"/>
<path d="M1791 2244 c0 -11 3 -14 6 -6 3 7 2 16 -1 19 -3 4 -6 -2 -5 -13z"/>
<path d="M1875 2250 c-3 -5 -1 -10 4 -10 6 0 11 5 11 10 0 6 -2 10 -4 10 -3 0
-8 -4 -11 -10z"/>
<path d="M242 2160 c0 -14 2 -19 5 -12 2 6 2 18 0 25 -3 6 -5 1 -5 -13z"/>
<path d="M318 2163 c7 -3 16 -2 19 1 4 3 -2 6 -13 5 -11 0 -14 -3 -6 -6z"/>
<path d="M771 1514 c0 -11 3 -14 6 -6 3 7 2 16 -1 19 -3 4 -6 -2 -5 -13z"/>
<path d="M1162 1510 c0 -14 2 -19 5 -12 2 6 2 18 0 25 -3 6 -5 1 -5 -13z"/>
<path d="M1061 1504 c0 -11 3 -14 6 -6 3 7 2 16 -1 19 -3 4 -6 -2 -5 -13z"/>
<path d="M1100 1505 c0 -8 2 -15 4 -15 2 0 6 7 10 15 3 8 1 15 -4 15 -6 0 -10
-7 -10 -15z"/>
<path d="M1635 709 c-4 -6 -5 -12 -2 -15 2 -3 7 2 10 11 7 17 1 20 -8 4z"/>
<path d="M1501 644 c0 -11 3 -14 6 -6 3 7 2 16 -1 19 -3 4 -6 -2 -5 -13z"/>
<path d="M1611 651 c-8 -5 -9 -11 -3 -15 5 -3 12 1 16 9 6 17 6 18 -13 6z"/>
<path d="M1575 640 c-3 -5 -1 -10 4 -10 6 0 11 5 11 10 0 6 -2 10 -4 10 -3 0
-8 -4 -11 -10z"/>
<path d="M1521 574 c0 -11 3 -14 6 -6 3 7 2 16 -1 19 -3 4 -6 -2 -5 -13z"/>
<path d="M1738 573 c7 -3 16 -2 19 1 4 3 -2 6 -13 5 -11 0 -14 -3 -6 -6z"/>
<path d="M1050 566 c0 -2 7 -6 15 -10 8 -3 15 -1 15 4 0 6 -7 10 -15 10 -8 0
-15 -2 -15 -4z"/>
<path d="M1650 453 c0 -4 5 -15 10 -23 8 -13 10 -13 10 2 0 9 -4 20 -10 23 -5
3 -10 3 -10 -2z"/>
</g>
</svg>
